<?xml version="1.0" encoding="iso-8859-1"?>
<!-- Generator: Adobe Illustrator 19.0.0, SVG Export Plug-In . SVG Version: 6.00 Build 0)  -->
<svg version="1.1" id="Capa_1" xmlns="http://www.w3.org/2000/svg" xmlns:xlink="http://www.w3.org/1999/xlink" x="0px" y="0px"
	 viewBox="0 0 424 424" style="enable-background:new 0 0 424 424;" xml:space="preserve">
<g>
	<g>
		<path d="M322.641,143.952c-2.389-6.732-7.648-12.053-14.352-14.52c-2.213-32.11-20.323-60.991-48.264-76.968V8
			c0-4.418-3.582-8-8-8h-80c-4.418,0-8,3.582-8,8v44.728c-27.561,16.084-45.424,44.718-47.752,76.544
			c-12.554,4.253-19.283,17.878-15.029,30.432c2.368,6.989,7.819,12.5,14.781,14.944v28.632c0.003,8.893,0.709,17.771,2.112,26.552
			l29.992,187.432c0.621,3.88,3.967,6.734,7.896,6.736h112c3.929-0.002,7.275-2.856,7.896-6.736l29.992-187.432
			c1.403-8.781,2.109-17.659,2.112-26.552v-28.632C320.538,170.208,327.081,156.465,322.641,143.952z M180.025,16h64v29.176
			c-20.71-7.345-43.324-7.294-64,0.144V16z M178.305,63.24V63.2c40.217-18.761,88.027-1.367,106.788,38.849
			c3.819,8.188,6.231,16.961,7.132,25.951h-159.8C135.322,99.868,152.726,75.302,178.305,63.24z M292.025,203.28
			c-0.002,8.038-0.639,16.063-1.904,24L261.201,408h-98.352l-28.92-180.704c-1.265-7.937-1.902-15.962-1.904-24V176h160V203.28z
			 M300.617,160H123.433c-4.418,0-8-3.582-8-8s3.582-8,8-8h177.184c4.418,0,8,3.582,8,8S305.036,160,300.617,160z"/>
	</g>
</g>
<g>
</g>
<g>
</g>
<g>
</g>
<g>
</g>
<g>
</g>
<g>
</g>
<g>
</g>
<g>
</g>
<g>
</g>
<g>
</g>
<g>
</g>
<g>
</g>
<g>
</g>
<g>
</g>
<g>
</g>
</svg>
