<?xml version="1.0" encoding="iso-8859-1"?>
<!-- Generator: Adobe Illustrator 18.1.1, SVG Export Plug-In . SVG Version: 6.00 Build 0)  -->
<svg version="1.1" id="Capa_1" xmlns="http://www.w3.org/2000/svg" xmlns:xlink="http://www.w3.org/1999/xlink" x="0px" y="0px"
	 viewBox="0 0 45.164 45.164" style="enable-background:new 0 0 45.164 45.164;" xml:space="preserve">
<g>
	<path d="M40.11,19.793c3.129-7.521,2.006-15.121,1.957-15.441L41.8,4.393c0.096-0.182,0.154-0.373,0.154-0.576
		C41.954,0.186,25.762,0,22.517,0C19.272,0,3.085,0.186,3.085,3.816c0,0.098,0.017,0.193,0.04,0.286l-0.03-0.005
		c-0.049,0.32-1.172,7.92,1.979,15.494C9.704,29.034,8.512,37.74,8,40.326c-0.155,0.314-0.206,0.625-0.206,0.92
		c0,1.682,1.595,3.918,15.383,3.918c9.86,0,13.966-1.103,14.094-3.79l0.065-0.018c-0.003-0.01-0.029-0.108-0.07-0.289
		c-0.015-0.228-0.059-0.444-0.134-0.649C36.607,37.649,35.552,29.096,40.11,19.793z M22.517,1.801
		c9.577,0,16.039,1.131,17.456,2.016C38.554,4.701,32.09,5.83,22.517,5.83c-9.571,0-16.033-1.129-17.45-2.014
		C6.482,2.932,12.944,1.801,22.517,1.801z M6.713,18.85C4.486,13.494,4.576,7.963,4.752,5.584
		c4.213,1.927,15.159,2.047,17.765,2.047c2.627,0,13.729-0.121,17.87-2.091c0.188,2.18,0.395,7.956-1.915,13.511
		c-3.952,8.062-3.915,15.479-3.446,19.548c-2.171-0.88-5.988-1.272-11.848-1.272c-7.151,0-11.017,0.603-13.087,1.417
		C10.601,34.776,10.781,27.144,6.713,18.85z M23.177,43.363c-11.727,0-13.337-1.65-13.55-2.036c0.017-0.069,0.037-0.153,0.058-0.248
		c0.395-0.499,2.492-1.952,13.492-1.952c9.786,0,11.835,1.192,12.222,1.845c0.028,0.133,0.053,0.248,0.076,0.352
		C35.376,41.893,34.062,43.363,23.177,43.363z"/>
	<path d="M13.6,33.814c-0.119,0.482,0.175,0.971,0.657,1.09c0.073,0.018,0.146,0.027,0.218,0.027c0.403,0,0.77-0.273,0.872-0.682
		c0.063-0.252,1.497-6.217-1.732-12.678c-2.337-4.674-2.608-9.369-2.61-9.416c-0.026-0.494-0.445-0.896-0.945-0.852
		c-0.496,0.025-0.878,0.449-0.853,0.945c0.011,0.205,0.286,5.104,2.798,10.127C14.925,28.221,13.614,33.76,13.6,33.814z"/>
</g>
<g>
</g>
<g>
</g>
<g>
</g>
<g>
</g>
<g>
</g>
<g>
</g>
<g>
</g>
<g>
</g>
<g>
</g>
<g>
</g>
<g>
</g>
<g>
</g>
<g>
</g>
<g>
</g>
<g>
</g>
</svg>
