<?xml version="1.0" encoding="iso-8859-1"?>
<!-- Generator: Adobe Illustrator 16.0.0, SVG Export Plug-In . SVG Version: 6.00 Build 0)  -->
<!DOCTYPE svg PUBLIC "-//W3C//DTD SVG 1.1//EN" "http://www.w3.org/Graphics/SVG/1.1/DTD/svg11.dtd">
<svg version="1.1" id="Capa_1" xmlns="http://www.w3.org/2000/svg" xmlns:xlink="http://www.w3.org/1999/xlink" x="0px" y="0px"
	 width="612.001px" height="612.001px" viewBox="0 0 612.001 612.001" style="enable-background:new 0 0 612.001 612.001;"
	 xml:space="preserve">
<g>
	<g>
		<g>
			<path d="M460.002,33.796l-1.145,0.439C443.63,7.517,358.073,0,305.403,0c-52.415,0-137.42,7.445-153.189,33.877L152,33.795
				c-0.062,0.153-0.205,0.541-0.398,1.144c-1.277,2.482-2.186,5.056-2.186,7.875c0,0.102,0.051,0.184,0.051,0.276
				c-4.545,20.845-10.979,78.05,18.936,183.104c36.778,129.279,31.089,346.281,31.028,348.467h0.031
				c0,0.092-0.041,0.163-0.041,0.256c0,29.271,66.172,37.084,105.289,37.084c39.118,0,105.319-7.813,105.319-37.084
				c0-1.226-0.274-2.37-0.5-3.524c-0.185-19.088-1.153-221.393,34.093-345.198C481.634,92.614,460.9,36.125,460.002,33.796z
				 M168.79,41.568c7.956-8.885,56.908-23.184,136.613-23.184c84.586,0,134.622,16.106,137.706,24.104
				c-3.114,8.641-53.149,24.736-137.706,24.736c-82.452,0-131.925-15.299-137.205-23.47
				C168.433,42.824,168.627,42.099,168.79,41.568z M304.699,593.616c-52.425,0-84.832-12.431-86.905-18.486c0-0.021,0-0.062,0-0.081
				c2.083-6.414,34.5-18.854,86.895-18.854c57.032,0,85.312,13.521,86.957,18.507C390.021,580.104,361.75,593.616,304.699,593.616z
				 M391.062,552.212c-22.541-10.897-60.381-14.391-86.363-14.391c-26.054,0-64.017,3.513-86.527,14.481
				c0.5-59.83-1.256-222.742-32.1-331.135c-22.837-80.225-23.583-131.098-21.029-157.805
				c29.986,17.077,96.587,22.234,140.351,22.234c44.347,0,112.05-5.321,141.476-22.939c2.645,26.494,2.104,77.529-20.948,158.49
				C394.79,330.553,391.287,494.281,391.062,552.212z"/>
		</g>
	</g>
</g>
<g>
</g>
<g>
</g>
<g>
</g>
<g>
</g>
<g>
</g>
<g>
</g>
<g>
</g>
<g>
</g>
<g>
</g>
<g>
</g>
<g>
</g>
<g>
</g>
<g>
</g>
<g>
</g>
<g>
</g>
</svg>
