<?xml version="1.0" encoding="iso-8859-1"?>
<!-- Generator: Adobe Illustrator 16.0.0, SVG Export Plug-In . SVG Version: 6.00 Build 0)  -->
<!DOCTYPE svg PUBLIC "-//W3C//DTD SVG 1.1//EN" "http://www.w3.org/Graphics/SVG/1.1/DTD/svg11.dtd">
<svg version="1.1" id="Capa_1" xmlns="http://www.w3.org/2000/svg" xmlns:xlink="http://www.w3.org/1999/xlink" x="0px" y="0px"
	 width="612px" height="612px" viewBox="0 0 612 612" style="enable-background:new 0 0 612 612;" xml:space="preserve">
<g>
	<g>
		<g>
			<path d="M578.358,53.829C578.358,2.607,351.444,0,305.957,0C260.499,0,33.642,2.607,33.642,53.829c0,1.999,0.463,3.896,1.13,5.75
				l-1.014,0.13l63.619,501.403h0.029C99.359,583.775,126.659,612,305.972,612c131.9,0,187.9-14.729,191.174-50.454l0,0
				l80.896-501.374l-0.984-0.159C577.823,58.014,578.358,55.972,578.358,53.829z M305.957,585.918
				c-174.781,0-182.63-27.442-182.63-27.718c0-0.276,7.849-27.776,182.63-27.776c157.431,0,165.411,23.144,165.411,27.776
				C471.368,562.806,463.403,585.918,305.957,585.918z M476.394,526.456c-27.037-15.351-81.389-22.099-170.422-22.099
				c-108.498,0-161.298,10.34-186.54,23.531L62.75,81.243c62.706,24.822,207.843,26.4,243.207,26.4
				c35.19,0,178.923-1.579,242.194-26.009L476.394,526.456z M305.957,81.576c-132.306,0-222.324-15.466-243.279-27.747
				c20.97-12.28,110.988-27.747,243.279-27.747c132.335,0,222.382,15.467,243.353,27.747
				C528.354,66.095,438.306,81.576,305.957,81.576z"/>
			<path d="M138.056,179.009c-7.139,0.898-12.223,7.415-11.339,14.54l29.803,240.702c0.826,6.618,6.43,11.455,12.932,11.455
				c0.536,0,1.072-0.06,1.607-0.116c7.14-0.884,12.223-7.386,11.339-14.54l-29.803-240.701
				C151.698,183.194,145.123,178.357,138.056,179.009z"/>
		</g>
	</g>
</g>
<g>
</g>
<g>
</g>
<g>
</g>
<g>
</g>
<g>
</g>
<g>
</g>
<g>
</g>
<g>
</g>
<g>
</g>
<g>
</g>
<g>
</g>
<g>
</g>
<g>
</g>
<g>
</g>
<g>
</g>
</svg>
